{
  "accessors": [
    {
      "bufferView": 1,
      "componentType": 5126,
      "count": 780,
      "max": [
        9.5179004669189453,
        10.63379955291748,
        27.349599838256836
      ],
      "min": [
        -10.996999740600586,
        -9.2842998504638672,
        13.120400428771973
      ],
      "type": "VEC3"
    },
    {
      "bufferView": 1,
      "byteOffset": 9360,
      "componentType": 5126,
      "count": 780,
      "max": [
        0.99389278888702393,
        0.95950138568878174,
        0.91891324520111084
      ],
      "min": [
        -0.99741828441619873,
        -0.95570284128189087,
        -0.92743325233459473
      ],
      "type": "VEC3"
    },
    {
      "bufferView": 0,
      "componentType": 5125,
      "count": 1368,
      "max": [
        779
      ],
      "min": [
        0
      ],
      "type": "SCALAR"
    },
    {
      "bufferView": 1,
      "byteOffset": 18720,
      "componentType": 5126,
      "count": 3469,
      "max": [
        15.572799682617188,
        15.65470027923584,
        14.560000419616699
      ],
      "min": [
        -15.572799682617188,
        -15.65470027923584,
        -0.69760000705718994
      ],
      "type": "VEC3"
    },
    {
      "bufferView": 1,
      "byteOffset": 60348,
      "componentType": 5126,
      "count": 3469,
      "max": [
        1,
        1,
        1
      ],
      "min": [
        -1,
        -1,
        -1
      ],
      "type": "VEC3"
    },
    {
      "bufferView": 2,
      "componentType": 5126,
      "count": 3469,
      "max": [
        1,
        1,
        0.87110048532485962,
        1
      ],
      "min": [
        -1,
        -1,
        -0.87110048532485962,
        1
      ],
      "type": "VEC4"
    },
    {
      "bufferView": 0,
      "byteOffset": 5472,
      "componentType": 5125,
      "count": 13134,
      "max": [
        3468
      ],
      "min": [
        0
      ],
      "type": "SCALAR"
    },
    {
      "bufferView": 1,
      "byteOffset": 101976,
      "componentType": 5126,
      "count": 65532,
      "max": [
        14.012499809265137,
        13.542499542236328,
        27.69219970703125
      ],
      "min": [
        -14.150600433349609,
        -13.378899574279785,
        6.516200065612793
      ],
      "type": "VEC3"
    },
    {
      "bufferView": 1,
      "byteOffset": 888360,
      "componentType": 5126,
      "count": 65532,
      "max": [
        0.99999034404754639,
        0.9996296763420105,
        0.99951130151748657
      ],
      "min": [
        -0.99998724460601807,
        -0.99960058927536011,
        -0.99997901916503906
      ],
      "type": "VEC3"
    },
    {
      "bufferView": 2,
      "byteOffset": 55504,
      "componentType": 5126,
      "count": 65532,
      "max": [
        1,
        1,
        0.94226539134979248,
        1
      ],
      "min": [
        -1,
        -1,
        -0.94323903322219849,
        1
      ],
      "type": "VEC4"
    },
    {
      "bufferView": 0,
      "byteOffset": 58008,
      "componentType": 5125,
      "count": 330618,
      "max": [
        65531
      ],
      "min": [
        0
      ],
      "type": "SCALAR"
    },
    {
      "bufferView": 1,
      "byteOffset": 1674744,
      "componentType": 5126,
      "count": 55762,
      "max": [
        12.739700317382812,
        10.309200286865234,
        28.901399612426758
      ],
      "min": [
        -10.879400253295898,
        -7.9565000534057617,
        7.9152002334594727
      ],
      "type": "VEC3"
    },
    {
      "bufferView": 1,
      "byteOffset": 2343888,
      "componentType": 5126,
      "count": 55762,
      "max": [
        0.99993014335632324,
        0.99999916553497314,
        0.9999547004699707
      ],
      "min": [
        -0.99996554851531982,
        -0.99998939037322998,
        -0.98978501558303833
      ],
      "type": "VEC3"
    },
    {
      "bufferView": 2,
      "byteOffset": 1104016,
      "componentType": 5126,
      "count": 55762,
      "max": [
        1,
        1,
        0.93344211578369141,
        1
      ],
      "min": [
        -1,
        -1,
        -0.92932707071304321,
        1
      ],
      "type": "VEC4"
    },
    {
      "bufferView": 0,
      "byteOffset": 1380480,
      "componentType": 5125,
      "count": 279942,
      "max": [
        55761
      ],
      "min": [
        0
      ],
      "type": "SCALAR"
    }
  ],
  "asset": {
    "extras": {
      "author": "amanbh21011998 (https://sketchfab.com/amanbh21011998)",
      "license": "CC-BY-4.0 (http://creativecommons.org/licenses/by/4.0/)",
      "source": "https://sketchfab.com/models/231cc6abc31b4602905023479fd0df6f",
      "title": "Cup Cake"
    },
    "generator": "Sketchfab-3.18.6",
    "version": "2.0"
  },
  "bufferViews": [
    {
      "buffer": 0,
      "byteLength": 2500248,
      "byteOffset": 0,
      "name": "floatBufferViews",
      "target": 34963
    },
    {
      "buffer": 0,
      "byteLength": 3013032,
      "byteOffset": 2500248,
      "byteStride": 12,
      "name": "floatBufferViews",
      "target": 34962
    },
    {
      "buffer": 0,
      "byteLength": 1996208,
      "byteOffset": 5513280,
      "byteStride": 16,
      "name": "floatBufferViews",
      "target": 34962
    }
  ],
  "buffers": [
    {
      "byteLength": 7509488,
      "uri": "scene.bin"
    }
  ],
  "materials": [
    {
      "doubleSided": true,
      "emissiveFactor": [
        0,
        0,
        0
      ],
      "name": "Scene_-_Root",
      "pbrMetallicRoughness": {
        "baseColorFactor": [
          1,
          1,
          1,
          1
        ],
        "metallicFactor": 0,
        "roughnessFactor": 0.59999999999999998
      }
    }
  ],
  "meshes": [
    {
      "primitives": [
        {
          "attributes": {
            "NORMAL": 1,
            "POSITION": 0
          },
          "indices": 2,
          "material": 0,
          "mode": 4
        }
      ]
    },
    {
      "primitives": [
        {
          "attributes": {
            "NORMAL": 4,
            "POSITION": 3,
            "TANGENT": 5
          },
          "indices": 6,
          "material": 0,
          "mode": 4
        }
      ]
    },
    {
      "primitives": [
        {
          "attributes": {
            "NORMAL": 8,
            "POSITION": 7,
            "TANGENT": 9
          },
          "indices": 10,
          "material": 0,
          "mode": 4
        }
      ]
    },
    {
      "primitives": [
        {
          "attributes": {
            "NORMAL": 12,
            "POSITION": 11,
            "TANGENT": 13
          },
          "indices": 14,
          "material": 0,
          "mode": 4
        }
      ]
    }
  ],
  "nodes": [
    {
      "children": [
        1
      ],
      "name": "RootNode (gltf orientation matrix)",
      "rotation": [
        -0.70710678118654746,
        -0,
        -0,
        0.70710678118654757
      ]
    },
    {
      "children": [
        2
      ],
      "name": "RootNode (model correction matrix)"
    },
    {
      "children": [
        3,
        4,
        5,
        6
      ],
      "name": "CupCake.obj.cleaner.materialmerger.gles"
    },
    {
      "mesh": 0,
      "name": ""
    },
    {
      "mesh": 1,
      "name": ""
    },
    {
      "mesh": 2,
      "name": ""
    },
    {
      "mesh": 3,
      "name": ""
    }
  ],
  "scene": 0,
  "scenes": [
    {
      "name": "OSG_Scene",
      "nodes": [
        0
      ]
    }
  ]
}

